<svg viewBox="0 0 100 100" xmlns="http://www.w3.org/2000/svg">
  <!-- Tree silhouette -->
  <g fill="#000000">
    <!-- Tree trunk -->
    <rect x="48" y="70" width="4" height="25"/>
    
    <!-- Main tree canopy -->
    <path d="M50 15 
             C55 10, 65 12, 70 20
             C75 25, 78 35, 75 45
             C80 50, 82 60, 78 65
             C75 68, 70 70, 65 70
             L35 70
             C30 70, 25 68, 22 65
             C18 60, 20 50, 25 45
             C22 35, 25 25, 30 20
             C35 12, 45 10, 50 15Z"/>
             
    <!-- Tree branches and detailed foliage -->
    <circle cx="35" cy="35" r="8"/>
    <circle cx="65" cy="35" r="8"/>
    <circle cx="50" cy="25" r="6"/>
    <circle cx="40" cy="45" r="7"/>
    <circle cx="60" cy="45" r="7"/>
    <circle cx="50" cy="55" r="9"/>
    <circle cx="30" cy="55" r="6"/>
    <circle cx="70" cy="55" r="6"/>
  </g>
  
  <!-- MTP text -->
  <text x="50" y="90" text-anchor="middle" font-family="serif" font-size="12" font-weight="bold" fill="#000000">MTP</text>
</svg>